<?xml version="1.0" encoding="utf-8"?>
<!-- Generator: Adobe Illustrator 18.1.1, SVG Export Plug-In . SVG Version: 6.00 Build 0)  -->
<svg version="1.1" id="Layer_1" xmlns="http://www.w3.org/2000/svg" xmlns:xlink="http://www.w3.org/1999/xlink" x="0px" y="0px"
	 viewBox="0 0 80.2 80.1" enable-background="new 0 0 80.2 80.1" xml:space="preserve">
<path d="M40.1,0C18,0,0.1,17.9,0.1,39.9S18,79.9,40.1,79.9S80,62,80,39.9S62.1,0,40.1,0z M59.9,69.9c-30.5-0.6-42.7-24-42.8-24.2
	c-0.2-0.5-0.8-0.7-1.3-0.4c-0.5,0.2-0.7,0.8-0.4,1.3c0.1,0.3,3.3,6.5,10.6,12.8c6.1,5.3,16.2,11.4,30.9,12.4c-2.5,1.3-5.1,2.3-7.9,3
	c-6.4,1-15,1-21.3-4.6c-0.4-0.4-1-0.3-1.4,0.1c-0.4,0.4-0.3,1,0.1,1.4c1.4,1.3,3,2.2,4.5,3c-13.5-3.6-24-14.8-26.3-28.8
	c1.9,4.5,5,9.6,10.2,13.8c0.2,0.2,0.4,0.2,0.6,0.2c0.3,0,0.6-0.1,0.8-0.4c0.3-0.4,0.3-1-0.1-1.4C8,51.6,5.2,42.7,4.2,37.6
	c0.5-6.9,2.9-13.3,6.7-18.6c3.2,5,11.8,17.1,24.9,23.8c0.4,0.2,9.4,4.3,15.4,4.4c0.1,0,6.4,0.2,11,5.5c0.2,0.2,0.5,0.3,0.7,0.3
	c0.2,0,0.5-0.1,0.7-0.2c0.4-0.4,0.4-1,0.1-1.4c-5.2-5.9-12.2-6.1-12.5-6.1C45.6,45,36.6,41,36.6,41c-13-6.7-21.8-19.4-24.4-23.7
	C17.3,11,24.5,6.4,32.7,4.7c2.8,3.5,10.7,12.5,21.4,16.1c0.1,0,0.2,0.1,0.3,0.1c0.4,0,0.8-0.3,0.9-0.7c0.2-0.5-0.1-1.1-0.6-1.3
	C45.4,15.8,38.1,8.1,34.9,4.4c1.7-0.2,3.4-0.4,5.1-0.4c19.5,0,35.4,15.6,35.9,35c-6-0.1-24.7-1.5-40.8-16.1c-0.4-0.4-1-0.3-1.4,0.1
	c-0.4,0.4-0.3,1,0.1,1.4C50.4,39.3,69.8,40.9,76,41C75.7,53,69.4,63.6,59.9,69.9z"/>
<ellipse transform="matrix(0.9493 0.3143 -0.3143 0.9493 20.4963 -12.5518)" cx="49.2" cy="57.3" rx="10.6" ry="5.8"/>
</svg>
