<?xml version="1.0" encoding="utf-8"?>
<!-- Generator: Adobe Illustrator 18.1.1, SVG Export Plug-In . SVG Version: 6.00 Build 0)  -->
<svg version="1.1" id="Layer_1" xmlns="http://www.w3.org/2000/svg" xmlns:xlink="http://www.w3.org/1999/xlink" x="0px" y="0px"
	 viewBox="0 0 79.7 79.9" enable-background="new 0 0 79.7 79.9" xml:space="preserve">
<path d="M40-0.1c-22.1,0-40,17.9-40,40c0,22.1,17.9,40,40,40s40-17.9,40-40C80,17.8,62.1-0.1,40-0.1z M74.5,29.6l-0.1-0.1
	c-0.7,0.4-1,1-1.3,1.6c-0.2,0.3-0.4,0.6-0.5,0.7c-0.2,0.1-0.6,0.5-0.7,0.5c-0.1,0-0.1,0-0.2,0c-0.3,0-0.7,0-1.3,0.1
	c-0.7,0.1-1.3,0-1.8-0.1c-1.7-0.3-2.7-0.1-3.7,2.3c-2.2-1.6-4.7-2-7.1-2.4c-0.8-0.1-1.6-0.3-2.4-0.5l-0.3-0.1
	c-1.8-0.4-2.8-0.6-4-1.9c-0.4-0.5-0.7-1.4-1-2.3c-0.4-1.3-0.8-2.6-1.7-3.3c-1.2-0.9-2.8-0.8-4.3-0.7c-1.4,0.1-2.8,0.2-3.7-0.5
	c-1.9-1.5-2.8-6-3.3-8.4l-0.3-1.4l-0.9,0.1c-2.3,0.3-4.9-1-6-2.9c-1-1.6-0.7-3-0.1-4.9c3.3-1,6.8-1.6,10.5-1.6
	C56.3,3.8,70.1,14.7,74.5,29.6z M4,39.9c0-8.8,3.2-16.9,8.5-23.2c-0.1,0.7-0.1,1.5,0,2.3c0.5,6.8,5.9,9.5,11.2,12.2
	c0.2,0.1,0.4,0.2,0.5,0.3c-1.1,0.8-1.6,1.8-1.9,2.6c-1,3.4,1.5,7.6,3,9.5c2.1,2.6,2.8,3.4,2.7,6.5c0,0.5-0.1,1-0.2,1.6
	c-0.3,2.1-0.6,4.8,1.5,6.1c1.9,1.2,3.9,0.5,5.6,0c0.9-0.3,1.7-0.6,2.3-0.5c0.3,0.1,0.5,0.1,0.7,0.1c0.1,0.4,0.3,0.9,0.8,1.7
	c0.3,0.5,0.5,0.9,0.7,1.3c1.2,2.2,1.5,2.5,4.6,3.7c1.6,0.6,3.3,1,4.9,1.3c1.6,0.3,3.1,0.6,4.4,1.2c0.1,0,0.2,0.2,0.3,0.4
	c0.3,0.4,0.8,0.9,1.5,1.2c1.2,0.5,2.5,0.6,3.8,0.8c0.5,0.1,1,0.1,1.5,0.2c0.2,0,0.4,0.1,0.5,0.1C55,73.4,47.8,75.9,40,75.9
	C20.1,75.9,4,59.8,4,39.9z M63.1,67.6c-0.4,0-0.8-0.1-1.3-0.2c-0.3-0.1-0.7-0.1-1-0.2c-0.5-0.1-1.1-0.2-1.6-0.2
	c-1.2-0.1-2.4-0.3-3.3-0.7c-0.2-0.1-0.5-0.4-0.7-0.6c-0.3-0.4-0.6-0.7-1.1-0.9c-1.5-0.6-3.2-0.9-4.8-1.3c-1.6-0.3-3.2-0.7-4.6-1.2
	c-2.6-1-2.6-1-3.6-2.8c-0.2-0.4-0.4-0.8-0.7-1.3c-0.5-0.9-0.6-1.3-0.6-1.5c-0.2-1-0.8-1.1-1.3-1.1c-0.2,0-0.4-0.1-0.8-0.1
	c-1.1-0.2-2.1,0.1-3.3,0.5c-1.4,0.5-2.8,0.9-3.9,0.2c-1-0.6-0.9-2.1-0.6-4.2c0.1-0.6,0.2-1.3,0.2-1.8c0.1-3.8-1-5.2-3.2-7.9
	c-1.7-2.1-3.2-5.4-2.6-7.6c0.3-1.1,1.1-1.8,2.5-2.2l2.2-0.7l-2.1-1.1c-0.8-0.4-1.5-0.8-2.3-1.2c-5.2-2.7-9.7-5-10.1-10.6
	c-0.1-1.6,0.1-3.1,0.4-4.6c3.5-3.5,7.8-6.2,12.5-8C27,7.8,26.9,9.4,28,11.3c1.4,2.4,4.3,3.9,7.1,3.9c0.6,2.9,1.6,7.4,4,9.3
	c1.5,1.2,3.4,1,5.1,0.9c1.2-0.1,2.4-0.2,3,0.3c0.4,0.3,0.7,1.3,1,2.2c0.3,1.1,0.7,2.3,1.4,3.1c1.6,1.8,3,2.1,5,2.5l0.3,0.1
	c0.9,0.2,1.7,0.3,2.5,0.5c2.8,0.5,5.2,0.9,7.2,2.9l1.1,1.1l0.5-1.5c0.9-2.5,1.1-2.5,2-2.3c0.6,0.1,1.4,0.3,2.5,0.1
	c0.5-0.1,0.9-0.1,1.1-0.1c0.8,0,1.1-0.2,2-0.9c0.5-0.4,0.8-0.9,1-1.3c0.1-0.1,0.2-0.3,0.2-0.4c0.6,2.7,1,5.4,1,8.3
	C76,51,71,60.9,63.1,67.6z"/>
</svg>
