<?xml version="1.0" encoding="utf-8"?>
<!-- Generator: Adobe Illustrator 18.1.1, SVG Export Plug-In . SVG Version: 6.00 Build 0)  -->
<svg version="1.1" id="Layer_1" xmlns="http://www.w3.org/2000/svg" xmlns:xlink="http://www.w3.org/1999/xlink" x="0px" y="0px"
	 viewBox="0 0 80.2 80.3" enable-background="new 0 0 80.2 80.3" xml:space="preserve">
<g>
	<path d="M40.1,80.2C18,80.2,0,62.2,0,40.1S18,0,40.1,0s40.1,18,40.1,40.1S62.2,80.2,40.1,80.2z M40.1,4C20.2,4,4,20.2,4,40.1
		C4,60,20.2,76.2,40.1,76.2S76.2,60,76.2,40.1C76.2,20.2,60,4,40.1,4z"/>
</g>
<g>
	<path d="M25.7,29.2c-3.6,0-6.5-2.9-6.5-6.5s2.9-6.5,6.5-6.5c3.6,0,6.5,2.9,6.5,6.5S29.3,29.2,25.7,29.2z M25.7,18.1
		c-2.5,0-4.5,2-4.5,4.5s2,4.5,4.5,4.5s4.5-2,4.5-4.5S28.2,18.1,25.7,18.1z"/>
</g>
<g>
	<path d="M34.9,27.6c-4.8,0-8.7-3.9-8.7-8.7c0-4.8,3.9-8.7,8.7-8.7c4.8,0,8.7,3.9,8.7,8.7C43.6,23.7,39.7,27.6,34.9,27.6z
		 M34.9,12.2c-3.7,0-6.7,3-6.7,6.7c0,3.7,3,6.7,6.7,6.7c3.7,0,6.7-3,6.7-6.7C41.6,15.2,38.6,12.2,34.9,12.2z"/>
</g>
<g>
	<path d="M33.3,48.4c-5.7,0-10.3-4.6-10.3-10.3c0-5.7,4.6-10.3,10.3-10.3c5.7,0,10.3,4.6,10.3,10.3C43.6,43.8,39,48.4,33.3,48.4z
		 M33.3,29.8c-4.6,0-8.3,3.7-8.3,8.3s3.7,8.3,8.3,8.3c4.6,0,8.3-3.7,8.3-8.3S37.9,29.8,33.3,29.8z"/>
</g>
<g>
	<path d="M41.4,38.6c-3.1,0-5.7-2.6-5.7-5.7c0-3.1,2.6-5.7,5.7-5.7c3.1,0,5.7,2.6,5.7,5.7C47.1,36.1,44.5,38.6,41.4,38.6z
		 M41.4,29.2c-2.1,0-3.7,1.7-3.7,3.7c0,2.1,1.7,3.7,3.7,3.7c2.1,0,3.7-1.7,3.7-3.7C45.1,30.9,43.4,29.2,41.4,29.2z"/>
</g>
<g>
	<path d="M51.3,30c-4.1,0-7.4-3.3-7.4-7.4c0-4.1,3.3-7.4,7.4-7.4c4.1,0,7.4,3.3,7.4,7.4C58.7,26.7,55.4,30,51.3,30z M51.3,17.3
		c-3,0-5.4,2.4-5.4,5.4c0,3,2.4,5.4,5.4,5.4c3,0,5.4-2.4,5.4-5.4C56.7,19.7,54.3,17.3,51.3,17.3z"/>
</g>
<g>
	<path d="M56.2,47.9c-4.6,0-8.3-3.7-8.3-8.3c0-4.6,3.7-8.3,8.3-8.3c4.6,0,8.3,3.7,8.3,8.3C64.4,44.1,60.7,47.9,56.2,47.9z
		 M56.2,33.3c-3.5,0-6.3,2.8-6.3,6.3c0,3.5,2.8,6.3,6.3,6.3c3.5,0,6.3-2.8,6.3-6.3C62.5,36.1,59.6,33.3,56.2,33.3z"/>
</g>
<g>
	<path d="M39.9,65.7c-6.8,0-12.4-5.6-12.4-12.4c0-6.8,5.6-12.4,12.4-12.4c6.8,0,12.4,5.6,12.4,12.4C52.3,60.1,46.7,65.7,39.9,65.7z
		 M39.9,42.9c-5.7,0-10.4,4.7-10.4,10.4s4.7,10.4,10.4,10.4c5.7,0,10.4-4.7,10.4-10.4S45.6,42.9,39.9,42.9z"/>
</g>
<g>
	<path d="M37.9,57.8c-2.5,0-4.5-2-4.5-4.5c0-2.5,2-4.5,4.5-4.5c2.5,0,4.5,2,4.5,4.5C42.4,55.8,40.4,57.8,37.9,57.8z M37.9,50.8
		c-1.4,0-2.5,1.1-2.5,2.5c0,1.4,1.1,2.5,2.5,2.5c1.4,0,2.5-1.1,2.5-2.5C40.4,51.9,39.3,50.8,37.9,50.8z"/>
</g>
<g>
	<path d="M42.6,61.7c-3.3,0-5.9-2.7-5.9-5.9c0-3.3,2.7-5.9,5.9-5.9c3.3,0,5.9,2.7,5.9,5.9C48.6,59.1,45.9,61.7,42.6,61.7z
		 M42.6,51.8c-2.2,0-4,1.8-4,4c0,2.2,1.8,4,4,4c2.2,0,4-1.8,4-4C46.6,53.6,44.8,51.8,42.6,51.8z"/>
</g>
<g>
	<path d="M17.4,41.1c-4.5,0-8.2-3.7-8.2-8.2c0-4.5,3.7-8.2,8.2-8.2c4.5,0,8.2,3.7,8.2,8.2C25.5,37.4,21.9,41.1,17.4,41.1z
		 M17.4,26.7c-3.4,0-6.2,2.8-6.2,6.2c0,3.4,2.8,6.2,6.2,6.2s6.2-2.8,6.2-6.2C23.6,29.5,20.8,26.7,17.4,26.7z"/>
</g>
<g>
	<path d="M11.3,53.3C5.6,53.3,1,48.7,1,43c0-5.7,4.6-10.3,10.3-10.3c5.7,0,10.3,4.6,10.3,10.3C21.6,48.7,17,53.3,11.3,53.3z
		 M11.3,34.6c-4.6,0-8.3,3.7-8.3,8.3c0,4.6,3.7,8.3,8.3,8.3c4.6,0,8.3-3.7,8.3-8.3C19.6,38.4,15.9,34.6,11.3,34.6z"/>
</g>
<g>
	<path d="M29.9,55.6c-4.1,0-7.5-3.4-7.5-7.5c0-4.1,3.4-7.5,7.5-7.5c4.1,0,7.5,3.4,7.5,7.5C37.4,52.2,34.1,55.6,29.9,55.6z
		 M29.9,42.5c-3.1,0-5.5,2.5-5.5,5.5c0,3.1,2.5,5.5,5.5,5.5c3,0,5.5-2.5,5.5-5.5C35.4,45,33,42.5,29.9,42.5z"/>
</g>
<g>
	<path d="M16,57.6c-3,0-5.4-2.4-5.4-5.4c0-3,2.4-5.4,5.4-5.4c3,0,5.4,2.4,5.4,5.4C21.4,55.1,19,57.6,16,57.6z M16,48.7
		c-1.9,0-3.5,1.6-3.5,3.5c0,1.9,1.6,3.5,3.5,3.5c1.9,0,3.5-1.6,3.5-3.5C19.4,50.2,17.9,48.7,16,48.7z"/>
</g>
<g>
	<path d="M24.1,62.2c-2.1,0-3.8-1.7-3.8-3.8s1.7-3.8,3.8-3.8s3.8,1.7,3.8,3.8S26.2,62.2,24.1,62.2z M24.1,56.7c-1,0-1.8,0.8-1.8,1.8
		c0,1,0.8,1.8,1.8,1.8s1.8-0.8,1.8-1.8C25.9,57.5,25.1,56.7,24.1,56.7z"/>
</g>
<g>
	<path d="M15.4,69.6c-3.2,0-5.8-2.6-5.8-5.8c0-3.2,2.6-5.8,5.8-5.8s5.8,2.6,5.8,5.8C21.2,67,18.6,69.6,15.4,69.6z M15.4,60
		c-2.1,0-3.9,1.7-3.9,3.9c0,2.1,1.7,3.9,3.9,3.9c2.1,0,3.9-1.7,3.9-3.9C19.3,61.7,17.5,60,15.4,60z"/>
</g>
<g>
	<path d="M35.4,74.4c-4.7,0-8.5-3.8-8.5-8.5c0-4.7,3.8-8.5,8.5-8.5c4.7,0,8.5,3.8,8.5,8.5C43.8,70.6,40,74.4,35.4,74.4z M35.4,59.5
		c-3.6,0-6.5,2.9-6.5,6.5c0,3.6,2.9,6.5,6.5,6.5c3.6,0,6.5-2.9,6.5-6.5C41.9,62.4,39,59.5,35.4,59.5z"/>
</g>
<g>
	<path d="M40.8,78.4c-3.3,0-6-2.7-6-6c0-3.3,2.7-6,6-6c3.3,0,6,2.7,6,6C46.8,75.7,44.1,78.4,40.8,78.4z M40.8,68.4c-2.2,0-4,1.8-4,4
		c0,2.2,1.8,4,4,4c2.2,0,4-1.8,4-4C44.8,70.2,43,68.4,40.8,68.4z"/>
</g>
<g>
	<path d="M56.7,70.5c-3.3,0-6-2.7-6-6c0-3.3,2.7-6,6-6c3.3,0,6,2.7,6,6C62.6,67.8,60,70.5,56.7,70.5z M56.7,60.5c-2.2,0-4,1.8-4,4
		c0,2.2,1.8,4,4,4c2.2,0,4-1.8,4-4C60.7,62.3,58.9,60.5,56.7,60.5z"/>
</g>
<g>
	<path d="M68.4,62.7c-4.2,0-7.6-3.4-7.6-7.6c0-4.2,3.4-7.6,7.6-7.6c4.2,0,7.6,3.4,7.6,7.6C76,59.3,72.6,62.7,68.4,62.7z M68.4,49.5
		c-3.1,0-5.6,2.5-5.6,5.6c0,3.1,2.5,5.6,5.6,5.6c3.1,0,5.6-2.5,5.6-5.6C74,52,71.5,49.5,68.4,49.5z"/>
</g>
<g>
	<path d="M70.3,46.1c-2.8,0-5-2.3-5-5c0-2.8,2.3-5,5-5c2.8,0,5,2.3,5,5C75.3,43.8,73,46.1,70.3,46.1z M70.3,37.9
		c-1.7,0-3.1,1.4-3.1,3.1c0,1.7,1.4,3.1,3.1,3.1c1.7,0,3.1-1.4,3.1-3.1C73.3,39.3,72,37.9,70.3,37.9z"/>
</g>
<g>
	<path d="M13.7,24.3c-2.8,0-5-2.3-5-5c0-2.8,2.3-5,5-5c2.8,0,5,2.3,5,5C18.7,22,16.5,24.3,13.7,24.3z M13.7,16.2
		c-1.7,0-3.1,1.4-3.1,3.1s1.4,3.1,3.1,3.1c1.7,0,3.1-1.4,3.1-3.1S15.4,16.2,13.7,16.2z"/>
</g>
<g>
	<path d="M62.8,32.2c-2,0-3.6-1.6-3.6-3.6c0-2,1.6-3.6,3.6-3.6c2,0,3.6,1.6,3.6,3.6C66.4,30.6,64.8,32.2,62.8,32.2z M62.8,27.1
		c-0.9,0-1.6,0.7-1.6,1.6s0.7,1.6,1.6,1.6s1.6-0.7,1.6-1.6S63.7,27.1,62.8,27.1z"/>
</g>
<g>
	<path d="M72.9,34.8c-2.9,0-5.2-2.3-5.2-5.2c0-2.9,2.3-5.2,5.2-5.2c2.9,0,5.2,2.3,5.2,5.2C78.1,32.5,75.8,34.8,72.9,34.8z
		 M72.9,26.4c-1.8,0-3.2,1.5-3.2,3.2c0,1.8,1.5,3.2,3.2,3.2c1.8,0,3.2-1.5,3.2-3.2C76.1,27.8,74.7,26.4,72.9,26.4z"/>
</g>
<g>
	<path d="M66.3,24.3c-3.2,0-5.9-2.6-5.9-5.9c0-3.2,2.6-5.9,5.9-5.9c3.2,0,5.9,2.6,5.9,5.9C72.2,21.6,69.5,24.3,66.3,24.3z
		 M66.3,14.5c-2.1,0-3.9,1.7-3.9,3.9c0,2.1,1.7,3.9,3.9,3.9c2.1,0,3.9-1.7,3.9-3.9C70.2,16.3,68.4,14.5,66.3,14.5z"/>
</g>
<g>
	<path d="M57.3,16.4c-1.6,0-2.8-1.3-2.8-2.8c0-1.6,1.3-2.8,2.8-2.8c1.6,0,2.8,1.3,2.8,2.8C60.1,15.1,58.9,16.4,57.3,16.4z
		 M57.3,12.7c-0.5,0-0.8,0.4-0.8,0.8c0,0.5,0.4,0.8,0.8,0.8s0.8-0.4,0.8-0.8C58.2,13.1,57.8,12.7,57.3,12.7z"/>
</g>
<g>
	<path d="M37,17c-1.6,0-2.8-1.3-2.8-2.8s1.3-2.8,2.8-2.8c1.6,0,2.8,1.3,2.8,2.8S38.5,17,37,17z M37,13.3c-0.5,0-0.8,0.4-0.8,0.8
		c0,0.5,0.4,0.8,0.8,0.8c0.5,0,0.8-0.4,0.8-0.8C37.8,13.7,37.4,13.3,37,13.3z"/>
</g>
<g>
	<path d="M24.2,18.2c-3.1,0-5.7-2.6-5.7-5.7c0-3.1,2.6-5.7,5.7-5.7c3.1,0,5.7,2.6,5.7,5.7C29.9,15.6,27.4,18.2,24.2,18.2z M24.2,8.7
		c-2.1,0-3.7,1.7-3.7,3.7c0,2.1,1.7,3.7,3.7,3.7c2.1,0,3.7-1.7,3.7-3.7C28,10.4,26.3,8.7,24.2,8.7z"/>
</g>
<g>
	<path d="M46.7,17.2c-4.4,0-8-3.6-8-8c0-4.4,3.6-8,8-8c4.4,0,8,3.6,8,8C54.7,13.6,51.1,17.2,46.7,17.2z M46.7,3.1c-3.3,0-6,2.7-6,6
		c0,3.3,2.7,6,6,6c3.3,0,6-2.7,6-6C52.7,5.8,50,3.1,46.7,3.1z"/>
</g>
<g>
	<path d="M56.3,55.8c-2,0-3.7-1.7-3.7-3.7c0-2,1.7-3.7,3.7-3.7c2,0,3.7,1.7,3.7,3.7C60,54.1,58.4,55.8,56.3,55.8z M56.3,50.4
		c-0.9,0-1.7,0.8-1.7,1.7c0,0.9,0.8,1.7,1.7,1.7S58,53,58,52.1C58,51.2,57.3,50.4,56.3,50.4z"/>
</g>
</svg>
