<?xml version="1.0" encoding="utf-8"?>
<!-- Generator: Adobe Illustrator 18.1.1, SVG Export Plug-In . SVG Version: 6.00 Build 0)  -->
<svg version="1.1" id="Layer_1" xmlns="http://www.w3.org/2000/svg" xmlns:xlink="http://www.w3.org/1999/xlink" x="0px" y="0px"
	 viewBox="0 0 79.9 80.2" enable-background="new 0 0 79.9 80.2" xml:space="preserve">
<path d="M43.5,78.6c-0.2,0-0.4-0.1-0.6-0.2c-0.4-0.3-0.5-1-0.1-1.4c0.6-0.8,1.2-2.5,1.4-3c0.4-0.9-0.4-1.6-0.4-1.6
	c-0.6-0.6-2-1.4-2.5-1.7c-3.5-2-4.5-3-4.6-3.1c-2.9-2.9-2.3-6.7-2.2-6.9c0.3-2.8,1.9-5.3,2-5.4c0.7-1.2,1.5-2,1.5-2.1
	c0.5-0.6,0.8-1.2,0.8-1.2c0.4-0.7,0.2-1.1,0.2-1.1c-0.2-0.9-1.4-2.1-1.9-2.6c-2.1-1.7-11-6.9-11-7C6.4,29.3,9.6,16.2,9.8,15.7
	c0.1-0.5,0.7-0.8,1.2-0.7c0.5,0.1,0.8,0.7,0.7,1.2l0,0c-0.1,0.5-2.9,12.3,15.4,23.5c0.4,0.2,9.1,5.3,11.3,7.2
	c0.2,0.2,2.2,1.9,2.6,3.6c0,0,0,0,0,0c0,0,0.4,1.1-0.4,2.5c0,0-0.4,0.8-1.1,1.6l0,0c0,0-0.6,0.7-1.3,1.8c0,0-1.4,2.3-1.7,4.7
	c0,0.2-0.5,3,1.7,5.2c0,0,0.9,0.9,4.1,2.8c0.2,0.1,2,1.1,2.8,1.9c0.6,0.5,1.6,1.9,0.9,3.7c-0.1,0.2-0.8,2.4-1.7,3.6
	C44,78.5,43.8,78.6,43.5,78.6z"/>
<path d="M53.9,76.2c-0.2,0-0.4-0.1-0.6-0.2c-0.4-0.3-0.5-1-0.2-1.4c6.3-7.9,8.5-17.8,8.5-17.9C63,51.5,63,48,63,48
	c0-1.9-0.1-2.6-0.6-3.8c-0.3-0.9-1.2-1.2-1.3-1.2c-0.4-0.2-1.4-0.1-2.2,0.1c-1.7,0.5-3.5,0.8-3.5,0.8c-4,0.9-10.5,2-10.6,2
	c-2.7,0.6-4.6-0.2-4.7-0.3c-1.8-0.5-4.7-2.4-4.8-2.4c-1.8-1.1-4.1-2.3-4.1-2.3c-1.8-0.9-3.2-2.1-3.3-2.2c-2.7-2.3-2.8-4.5-2.8-4.8
	c-0.2-2.9,2.5-4.2,2.6-4.3c2-1,4.4,0.4,4.7,0.5c1.1,0.4,4.6,2.7,5,2.9c1.7,1,2.4,0.9,2.4,0.9c0.1-0.1,0.1,0,0.2-0.1
	c0.2-0.1,0.6-0.5,0.8-1c0.5-1,0.8-2.3,0.8-2.8c0.2-2.1,0.7-3.7,0.7-3.8c1.2-4.3,4.4-9.1,4.5-9.3c1.8-2.5,2.7-4.9,2.7-4.9
	c1.4-3,0.8-5.4,0-6.8c-0.6-1,1.9-1,2.5,0.8c0.6,1.9,0.6,4.2-0.6,6.8c0,0-1,2.6-2.9,5.2c0,0-3.1,4.7-4.2,8.7c0,0-0.5,1.6-0.7,3.4
	c0,0.1-0.2,2.1-1,3.5c-0.2,0.4-0.9,1.7-2.1,2c-0.5,0.2-1.7,0.3-4-1c-1.1-0.7-3.9-2.5-4.9-2.9c-0.6-0.3-2-1-2.9-0.5
	c-0.1,0-1.6,0.9-1.5,2.4c0,0.1,0.1,1.6,2.1,3.4c0,0,1.3,1.1,2.9,1.9c0,0,2.4,1.3,4.2,2.4c0,0,2.8,1.8,4.5,2.3
	c0.2,0.1,1.5,0.7,3.6,0.2c0.1,0,6.6-1.2,10.6-2c0,0,1.8-0.4,3.4-0.8c0.5-0.1,2.3-0.5,3.4-0.1l0,0c0,0,1.7,0.6,2.4,2.4
	C64.8,45,65,46,64.9,48c0,0.1,0.1,3.8-1.4,9.2c-0.1,0.4-2.3,10.4-8.9,18.7C54.5,76.1,54.2,76.2,53.9,76.2z"/>
<path d="M52.9,6.3c0,0-2.1-0.9-4.5-1.4c-2.4-0.5,2.9-1,3.2-0.9c0.2,0.1,2.3,2,2.3,2S53.6,6.6,52.9,6.3z"/>
<path fill="#FFFFFB" d="M46,75.2c0,0-1.5,0.3-2.9,0.4c-1.4,0.1-1.9,2.7-0.9,3c1,0.3,2.9,0.5,3.5,0.2c0.6-0.3,1.1-1.7,1.1-2.1
	S46.9,75.4,46,75.2z"/>
<path d="M58.2,70.8c0,0-2.9,1.6-4.4,2.2c0,0-2.6,4.3-0.2,3.6c2.4-0.6,3.7-2.1,3.7-2.1l1.5-2.4C58.7,72.1,59.8,70.2,58.2,70.8z"/>
<path d="M11.6,18c0,0-1.3,1.7-2.2,3.2c-0.9,1.5-1.3-2.5-1.3-2.5L9,15.9l2.1-1.6l1,0.2c0,0,0.5,1.4,0.5,1.5
	C12.5,16.1,12.1,17.1,11.6,18z"/>
<path d="M40.1,79.7c-22,0-39.8-17.9-39.8-39.8S18.1,0,40.1,0c22,0,39.8,17.9,39.8,39.8S62,79.7,40.1,79.7z M40.1,3.9
	C20.3,3.9,4.2,20,4.2,39.8c0,19.8,16.1,35.9,35.9,35.9C59.9,75.7,76,59.6,76,39.8C76,20,59.9,3.9,40.1,3.9z"/>
</svg>
