<?xml version="1.0" encoding="utf-8"?>
<!-- Generator: Adobe Illustrator 18.1.1, SVG Export Plug-In . SVG Version: 6.00 Build 0)  -->
<svg version="1.1" id="Layer_1" xmlns="http://www.w3.org/2000/svg" xmlns:xlink="http://www.w3.org/1999/xlink" x="0px" y="0px"
	 viewBox="0 0 80 80" enable-background="new 0 0 80 80" xml:space="preserve">
<g>
	<path d="M40,80C17.9,80,0,62.1,0,40C0,18,17.9,0,40,0S80,18,80,40C80,62.1,62.1,80,40,80z M40,4C20.1,4,4,20.1,4,40
		c0,19.9,16.2,36,36,36s36-16.2,36-36C76,20.1,59.9,4,40,4z"/>
</g>
<g>
	<path d="M66.9,65.6c-1.3-5.7-6.5-12.2-10.9-15.6c-7.2-5.6-14.8-6.8-23.6-8.3c-1.8-0.3-3.6-0.6-5.4-0.9c-3.6-0.7-7-2.1-9.8-4.2
		c-2.8-2.2-5-5-6.3-8.1c-0.8-2-1.3-4.1-1.3-6.3c0-1.2,0-2.5,0.2-3.8c0.2-0.9,0.7-2,1-2.5l0.1-0.2c0.2-0.3,0.4-0.8,0.8-1.1l1.2,1.5
		l-0.6-0.8l0.6,0.8c-0.1,0.1-0.2,0.3-0.3,0.5l-0.1,0.2c-0.4,0.7-0.7,1.4-0.8,1.9c-0.2,1.1-0.2,2.2-0.2,3.3c0.1,1.9,0.5,3.8,1.2,5.6
		c1.1,2.8,3.1,5.4,5.6,7.3c2.5,1.9,5.6,3.2,8.9,3.9c1.8,0.3,3.6,0.6,5.4,0.9c8.7,1.4,16.9,2.8,24.5,8.7c4.5,3.5,10.1,10.2,11.6,16.7
		L66.9,65.6z"/>
</g>
<g>
	<path d="M62.3,71c-4.6-5.1-11.6-7.9-18.7-7.6c-2.5,0.1-4.8,0.7-7.4,1.2c-2.2,0.5-4.4,1-6.7,1.2c-4.4,0.4-9.1,0-13.4-1.3l-0.6-0.2
		c-2.1-0.6-4.5-1.3-6.3-2.8C8.5,61,8,60.2,7.4,59.5c-0.5-0.8-1-1.5-1.7-1.9l1.1-1.7c1,0.6,1.6,1.6,2.2,2.4c0.5,0.7,0.9,1.3,1.5,1.8
		c1.5,1.2,3.6,1.8,5.6,2.4l0.6,0.2c4,1.2,8.5,1.6,12.6,1.2c2.2-0.2,4.4-0.7,6.5-1.2c2.5-0.6,5.1-1.1,7.7-1.3
		c7.7-0.4,15.3,2.7,20.3,8.2L62.3,71z"/>
</g>
</svg>
